<svg class="City-logo" width="2000" height="2000" xmlns="http://www.w3.org/2000/svg"><g fill="#3bd6ff"><path d="M9495 19993c-1790-90-3508-655-5010-1648-575-380-1051-770-1555-1275-266-266-410-422-620-675-1250-1501-2030-3322-2250-5250-42-371-52-545-57-1010-7-583 10-909 73-1405 179-1425 674-2809 1445-4039 545-869 1263-1693 2057-2360 956-802 2067-1424 3252-1821C7601 251 8354 98 9220 24c248-21 1036-30 1310-15 1402 79 2685 417 3920 1033 583 290 1035 570 1565 968 697 523 1347 1163 1883 1853 699 899 1233 1895 1592 2967 220 655 370 1332 449 2020 50 430 56 557 56 1150s-6 720-56 1150c-222 1929-1000 3745-2249 5245-1191 1432-2759 2505-4520 3095-843 283-1698 446-2615 500-151 9-904 11-1060 3zm1050-424c1869-104 3673-762 5179-1888 2035-1522 3386-3778 3756-6271 73-496 100-871 100-1407 0-359-9-592-35-878-167-1803-836-3510-1944-4955-434-566-994-1142-1565-1608-1362-1113-3053-1842-4796-2067-705-90-1424-104-2125-39-1751 161-3434 809-4844 1867C2235 3850 892 6094 520 8590c-82 552-113 1080-98 1683 54 2235 912 4392 2423 6097 172 194 613 633 805 802 945 832 1991 1449 3165 1868 611 218 1290 380 1945 465 601 77 1182 98 1785 64z" transform="matrix(.1 0 0 -.1 0 2000)"></path><path d="M9615 19379c-1724-68-3393-613-4836-1580-1018-683-1895-1560-2578-2578C939 13338 405 11087 686 8830c334-2687 1828-5107 4094-6629C6658 940 8906 407 11170 686c2460 303 4718 1593 6252 3571 1523 1966 2200 4437 1892 6913-147 1187-523 2337-1107 3385-735 1321-1789 2455-3056 3290-1640 1081-3559 1612-5536 1534zm1110-453c782-70 1464-213 2165-451 1853-632 3460-1868 4554-3504 784-1171 1272-2485 1445-3896 47-383 56-547 56-1075s-9-692-56-1075c-320-2602-1741-4913-3918-6369-1270-851-2683-1343-4246-1482-245-21-950-30-1210-15-1243 73-2381 371-3465 907-1446 714-2649 1777-3536 3124-865 1315-1357 2804-1454 4400-13 213-13 807 0 1020 96 1592 587 3079 1447 4390 1526 2324 4028 3810 6778 4025 299 23 286 23 790 20 332-2 523-8 650-19z" transform="matrix(.1 0 0 -.1 0 2000)"></path><path d="M10197 18323l-107-4 6-304 7-304-24-5c-13-3-151-7-305-11l-282-5-6 22c-3 13-6 89-6 169s-3 207-7 282l-6 137h-169c-136 0-170-3-174-14-5-14 32-1546 38-1551 2-1 81 0 177 3l174 5-7 171c-3 94-7 234-8 311l-3 140 304 8c167 4 306 5 309 2 4-3 18-391 21-584l1-34 170 5c93 2 172 7 175 10 6 5-17 1006-31 1386l-6 172-67-2c-36-1-114-4-174-5zm1068-105c-12-38-326-1510-322-1514 9-10 1152-253 1158-246 7 8 70 294 66 298-1 2-185 42-407 90-223 48-407 88-408 90-7 5 61 304 69 304 4 0 133-27 285-60s278-59 280-58c1 2 36 62 78 135 69 121 84 153 71 153-8 0-649 140-651 143-1 1 12 68 29 149 25 119 35 147 47 143 8-2 184-41 390-85 206-45 382-83 391-86 13-4 22 22 48 147 18 83 30 153 27 156-4 4-1123 251-1144 253-1 0-5-6-7-12zm-3365-148c-382-82-627-336-672-696-20-167 25-376 114-529 61-104 202-240 304-292 133-69 215-88 379-87 122 1 152 4 230 28 234 71 380 182 497 378 22 38 39 70 37 72-4 4-221 126-256 145-20 10-25 6-65-51-89-132-208-213-350-239-270-49-527 196-528 503 0 181 95 335 253 408 124 58 249 59 395 4 37-14 74-28 83-30 12-4 32 30 86 148 80 174 82 159-28 202-148 59-316 71-479 36zm5265-484c-156-38-272-150-325-315-32-99-26-211 16-295 36-74 135-181 286-307 125-106 184-170 197-216 11-40-3-84-39-118-29-27-37-30-98-30-149 2-322 132-429 325-20 36-38 67-40 69-5 6-293-133-293-142 0-16 50-105 98-172 234-331 654-492 923-355 97 50 181 156 224 283 30 90 32 154 7 235-36 112-126 218-348 406-122 102-168 165-160 216 12 76 63 113 148 107 112-9 251-114 352-266l47-70 137 81c75 44 138 82 140 83 2 2-16 36-40 76-26 44-79 109-133 164-198 198-460 292-670 241zm-6952-175c-78-47-142-91-143-97 0-8 269-457 462-771l19-33-33 14c-162 67-1057 416-1067 416-21 0-271-154-271-166 0-10 782-1308 799-1326 5-6 270 147 292 169 5 5-99 187-240 418-137 226-248 411-247 413 2 1 254-97 562-218 307-121 563-220 567-220 11 0 246 140 252 150 5 7-777 1305-799 1326-8 9-48-11-153-75zm8210-524c-51-68-93-126-93-130 0-3 83-70 184-147l185-140-375-492-375-492 33-25c18-14 81-63 140-109l108-82 42 55c24 30 192 250 373 489 182 239 335 433 342 431s88-62 180-133c92-70 173-131 180-135 12-8 207 238 201 253-4 11-1007 775-1021 777-7 2-54-53-104-120zm-4758-738c-811-51-1587-258-2320-619-433-213-810-454-1167-744l-87-71-243-38c-134-21-281-46-327-55l-85-17-32-145c-18-80-49-235-70-345l-37-200-94-120c-1125-1442-1550-3273-1176-5070 196-944 634-1860 1252-2615 846-1034 2012-1774 3291-2089 91-22 233-54 315-70 113-23 179-42 267-80 229-97 772-289 895-315 24-6 66 3 165 34 198 63 467 161 698 256 165 67 230 89 335 109 1608 321 2999 1247 3919 2607 581 859 924 1822 1028 2888 18 182 18 917 0 1100-113 1166-523 2231-1211 3144l-112 150-40 213c-21 118-56 290-76 382l-36 168-186 32c-102 17-259 42-348 56-90 13-168 27-175 31-7 5-68 52-136 106-895 714-2015 1173-3152 1293-328 34-740 44-1055 24zm875-365c938-78 1822-378 2633-891 65-42 116-77 114-79s-64 3-138 11c-483 53-1107 99-1854 136-334 17-1764 23-2163 10-759-26-1410-69-2105-142-110-11-201-18-203-16-7 6 195 135 359 229 77 45 235 127 351 183 936 456 1962 646 3006 559zm375-1244c1148-39 2307-150 3178-305 109-19 203-35 208-35 57 0 220-956 304-1780 134-1320 121-2667-36-3790-70-501-218-957-468-1445-258-502-566-921-991-1345-733-733-1668-1293-2848-1709-96-34-180-61-188-61-21 0-366 123-554 197-849 335-1546 747-2176 1284-154 131-490 469-622 627-555 659-918 1374-1087 2137-66 296-131 903-167 1545-16 289-16 1244 0 1545 44 822 118 1509 243 2235 64 375 108 555 138 564 9 3 95 19 191 35 938 162 2079 267 3290 304 248 8 1325 5 1585-3zm-5759-1626c-120-1044-147-2172-76-3179 29-401 89-939 136-1215 92-538 310-1161 591-1685 438-818 1022-1500 1788-2083 43-33-269 123-426 213-271 155-580 372-844 591-162 134-557 527-697 694-708 841-1164 1846-1317 2905-46 319-55 446-55 835-1 380 4 465 44 777 85 648 290 1301 596 1891 88 171 273 486 281 479 2-3-7-103-21-223zm9956-69c394-688 640-1476 725-2315 24-242 24-824 0-1060-72-690-224-1262-499-1870-476-1053-1299-1975-2305-2578-183-110-444-246-393-205 19 15 90 72 157 126 389 311 772 705 1072 1104 584 777 963 1679 1095 2608 146 1022 185 2225 111 3385-20 311-65 792-91 985l-5 40 32-50c18-27 63-104 101-170z" transform="matrix(.1 0 0 -.1 0 2000)"></path><path d="M10025 14070c-77-27-141-50-143-50-1 0-6-10-11-22-6-19-36-33-152-73-105-37-145-55-147-68-3-17 4-18 100-11 240 16 240 16 258 49 17 31 53 42 143 44l37 1-1-122c0-68-4-131-8-142-5-14-74-42-267-108-241-82-261-91-295-128-49-53-107-176-126-263-26-126-5-286 50-378 35-58 97-104 105-78 3 7 32 42 66 77 108 112 280 175 646 236 169 28 439 60 446 53 2-2-266-98-596-212-656-227-649-224-702-322-105-192-60-520 102-741l31-44 63 65c186 191 427 279 961 351 140 19 416 48 420 44 2-2-330-118-738-259l-741-256-38-54c-52-74-97-195-109-292-9-66-8-100 5-172 8-49 14-91 12-92-6-7-75 144-105 229-16 47-37 120-45 162-20 92-20 301-2 405l13 75-55 70c-154 200-221 436-177 630 9 43 15 80 12 82-2 2-88-25-191-61s-191-65-195-65c-5 0-11 116-15 257-4 142-9 259-10 261-2 1-68-20-147-48-107-38-150-58-169-79s-60-40-162-76c-95-33-138-52-138-62 0-13 18-14 133-8 187 10 209 15 225 48 14 29 24 33 120 42l62 6v-378l-242-82c-275-93-278-95-342-226-54-109-70-182-70-325-1-143 14-208 66-285 51-75 56-75 121-12 106 104 313 184 622 240 162 30 410 60 454 55 21-2-155-66-570-208-672-230-610-199-659-326-31-81-39-250-16-349 22-94 85-217 151-298 68-83 91-97 111-68 32 45 177 103 312 126l42 7v-136c0-123-2-136-17-136-85 1-489 60-793 116-464 86-758 158-955 233-44 17-83 31-86 31-6 0-22-43-23-63-1-4 70-37 156-72 224-90 385-159 523-225 129-60 140-70 257-225 56-75 258-371 258-379 0-3-483-6-1074-6H5701l5-67c2-38 7-121 10-185l6-118h8676l6 48c3 26 8 109 12 185l6 137h-2071l-29 43c-31 44-62 124-62 158 0 68 24 112 110 204 133 141 214 276 234 388 8 44 15 43-124 17-132-25-540-84-725-105-77-8-155-17-172-19l-33-5v117l43 16c59 22 1149 396 1153 396 11 0-1 26-46 104-102 172-177 381-206 571-22 139-14 507 15 694 11 73 23 142 26 152 4 12 1 19-7 19-7 0-230-75-496-166-265-92-485-165-487-162-3 2-8 226-11 496-5 340-11 492-18 492-6 0-72-21-146-46-102-35-141-54-161-76s-61-41-165-77c-87-31-139-54-139-62 0-16 27-16 219-4 117 7 118 7 135 36 18 33 26 36 125 48l69 8-7-671c-15-1569-17-1693-35-1667-126 181-269 453-320 608-53 161-64 246-58 443 3 96 12 204 20 239l14 65-61 90c-84 126-130 215-171 338-40 119-53 254-37 373 9 66 8 72-13 95-43 47-97 143-125 219-57 156-61 266-15 424 14 49 18 77 11 77-6 0-112-35-236-79l-225-78-3 213c-2 162-5 214-15 213-6 0-75-22-152-49zm-699-3215c87-8 168-17 179-19 11-3 39-31 62-63s67-83 98-113l55-54 17 24c30 45 87 91 148 122 57 29 158 68 177 68 4 0 8-70 8-156v-157l-382 7c-475 9-996 32-1016 45-5 3-12 72-15 153l-7 147 32 4c87 11 499 6 644-8zm1506 0c181-19 439-63 561-96 36-10 37-11 37-58v-48l-67-7c-38-3-140-11-228-17-149-10-171-14-310-59l-150-48-237-7-238-6v340l33 5c17 3 43 7 57 9 66 11 420 5 542-8zm-1363-691c74-8 236-35 360-59 299-58 409-69 606-61 181 7 308 29 435 75 84 31 86 32 180 20 52-6 219-42 370-79 151-38 284-71 295-73 11-3-838-5-1887-6-1050 0-1908 1-1908 4 0 15 31 63 57 87 36 35 88 56 155 64 54 6 63 4 393-68 125-27 158-30 305-30 250 0 406 37 461 111 12 17 28 31 33 31 6 0 71-7 145-16z" transform="matrix(.1 0 0 -.1 0 2000)"></path><path d="M7841 12333c-96-58-260-184-384-298-204-185-373-382-524-609-82-122-223-381-223-408 0-10 49-13 218-14 221-1 346-14 602-64 52-10 96-17 98-15s-2 56-8 119c-18 171-8 485 18 608 53 245 138 476 234 641 22 38 38 70 36 73-2 2-32-13-67-33zM5730 9463c0-95 58-656 90-879 164-1120 820-2198 1835-3010 508-407 1128-761 1818-1038 222-89 506-190 513-183 6 6-853 1047-864 1047-4 0-36-9-72-20-113-34-180-20-222 49-21 33-23 52-28 205l-5 169-1525 1843c-839 1014-1528 1843-1532 1843-5 1-8-11-8-26zm1457-56c37-45 358-433 713-860l645-778 16 53c23 79 41 108 101 165 66 62 121 91 253 131 171 53 278 131 399 290 40 53 85 108 100 121 14 14 26 28 26 33 0 4-171 215-381 468l-381 460H7119l68-83zm2813 76c0-11 1043-1271 1079-1304 16-15 66-39 112-54 115-38 190-79 247-136 43-43 102-140 102-168 0-6 10-11 23-11 31 0 316-99 350-122 41-29 60-73 55-129-4-40-17-64-82-153-46-64-74-111-70-118 14-23 1086-1313 1094-1316 10-4 183 177 309 323s281 351 385 509c70 105 76 119 63 134-8 9-488 587-1066 1285l-1052 1267h-775c-426 0-774-3-774-7zm2957-5c5-7 281-341 614-742l604-729 22 74c35 112 90 377 112 539 33 241 81 728 81 828v42h-721c-576 0-720-3-712-12zm-2993-700c-104-134-100-125-69-150 53-41 87-84 118-150 18-37 35-68 39-68 3 0 9 13 13 30 9 43 76 141 120 178l39 31-25 34c-84 117-145 196-150 197-3 0-42-46-85-102zm-309-269c-101-19-149-56-250-189-138-182-261-270-465-330-104-31-141-52-189-106-51-59-76-134-68-214 12-134 113-231 290-277 36-10 69-14 73-10s-2 28-14 52c-28 59-29 141-3 194 34 65 79 96 203 136 62 20 129 45 148 55 43 23 107 89 189 197 48 63 75 88 114 108 88 44 191 25 258-46 19-21 35-29 45-25 15 6 16 21 11 121-6 124-26 187-81 252-53 63-171 100-261 82z" transform="matrix(.1 0 0 -.1 0 2000)"></path><path d="M10311 8505c-85-24-144-76-183-160-18-40-23-72-26-167-3-87-1-118 8-118 6 0 30 16 53 35 49 42 126 68 177 59 77-14 133-58 201-159 44-65 104-130 143-154 17-11 85-38 151-61 66-22 137-52 157-65 86-57 118-180 70-272-28-53-28-63 1-63 33 0 162 45 211 74 125 74 175 229 117 362-42 95-111 144-291 203-184 60-305 149-426 314-40 54-84 107-98 118-71 56-178 78-265 54z" transform="matrix(.1 0 0 -.1 0 2000)"></path><path d="M10212 7979c-26-13-55-39-70-62l-27-41v-601l55-27c30-15 71-46 91-69l36-41 259 82c142 46 276 91 296 101 71 36 110 127 88 208-19 72-59 106-166 141-52 18-121 50-154 72-55 36-84 67-174 183-55 71-153 94-234 54zm-504-12c-21-12-52-42-69-67-87-122-170-185-305-230-128-44-177-97-177-195 0-28 7-64 16-80 34-67 60-79 339-169 147-47 274-86 281-86s31 19 52 41c22 23 64 52 93 65l52 24v287c0 259-2 292-19 328-34 74-85 105-174 105-36 0-63-7-89-23zm-1312-342c-71-25-131-47-134-50-7-7 149-235 161-235 5 0 22 9 38 20 44 32 136 60 196 60 29 0 53 2 53 6 0 3-27 30-60 60-39 37-70 78-91 120-18 35-32 64-33 63 0 0-59-20-130-44zm3134-13c-16-37-46-79-87-120-35-35-63-65-63-67 0-1 31-5 69-7 62-5 120-25 212-75 6-4 156 198 165 222 4 8-37 27-126 59-73 25-135 46-138 46-4 0-18-26-32-58zm-265-282c-91-22-175-54-175-67 0-7 11-18 25-23 82-31 139-113 140-200 0-65-15-97-92-200-96-128-105-159-113-347-6-157-8-164-36-210-18-29-49-59-79-78-44-27-56-30-127-29-53 1-78-2-78-10 0-18 69-116 115-162 60-59 117-86 196-92 85-6 152 16 211 67 79 70 107 164 108 367 0 166 55 319 168 471 92 123 97 135 97 233 0 73-4 92-27 135-14 28-39 62-55 77-62 59-186 90-278 68zm-2630-24c-68-31-130-101-149-167-34-113-14-187 91-341 136-200 173-310 173-518 0-158 14-210 75-278 111-123 298-130 418-14 46 44 127 154 127 172 0 9-13 11-49 6-68-9-132 9-182 52-65 56-79 96-79 237 0 162-16 218-88 322-111 160-116 170-120 237-3 49 0 71 16 102 25 47 77 99 115 113 51 19 30 42-63 73-113 36-213 38-285 4z" transform="matrix(.1 0 0 -.1 0 2000)"></path><path d="M10597 7114c-142-47-259-90-261-97s-8-37-14-69c-6-31-23-74-37-96-17-27-24-45-18-55 38-63 332-452 353-467 53-38 148-43 206-12 34 18 72 69 84 110 5 20 10 76 10 123 0 114 25 194 90 289 71 103 80 122 80 180 0 69-29 123-83 155-73 42-116 36-410-61zm-1501 53c-58-32-89-95-84-169 4-47 11-67 44-113 98-138 120-197 129-355 3-58 9-114 12-125 11-37 45-75 86-96 54-28 148-24 194 9 38 27 353 457 353 482 0 10-11 40-25 67-14 26-28 72-32 101l-6 52-262 85c-293 95-339 102-409 62zm910-27c-123-39-139-216-26-275 41-21 118-19 157 5 86 52 87 190 3 251-30 22-95 31-134 19zm-113-452c-231-313-295-403-304-424-28-75 4-176 69-219 60-39 106-41 203-9 121 40 249 40 373 0 101-32 152-30 208 7 66 45 97 146 68 223-6 15-85 128-177 252l-166 224-41-8c-53-10-112-10-158 0-35 8-37 7-75-46z" transform="matrix(.1 0 0 -.1 0 2000)"></path><path d="M9407 6036c-73-99-97-159-97-241 1-155 106-267 263-282 54-5 82 0 207 36 232 68 367 67 565-2 162-56 283-38 372 55 76 80 96 212 48 317-31 66-114 181-131 181-7 0-16-19-19-45-15-95-99-178-196-191-35-4-70 3-172 35-163 52-196 52-373 1-76-22-151-40-165-40-99 0-202 92-215 191-9 67-29 64-87-15zm2063 47c0-27-46-120-80-163-16-20-44-47-62-59l-33-23 3-163c2-101-1-179-8-206-15-53-55-94-107-108-36-10-55-7-174 30-74 23-155 50-181 61l-47 20-29-21c-44-31-119-61-175-69l-49-7 271-327c150-181 274-328 277-328 2 0 77 37 167 81 288 144 489 259 745 426l143 93-19 24c-99 126-627 756-633 756-5 0-9-8-9-17zm-2289-228c-47-33-145-65-199-65h-45l7-142c4-79 9-144 11-146 4-4 259 69 267 77 3 3-1 33-9 66-15 59-11 134 13 213 8 28-2 27-45-3z" transform="matrix(.1 0 0 -.1 0 2000)"></path><path d="M10874 5858c24-83 29-140 17-204-7-37-8-70-4-75 15-13 253-82 260-75 4 4 9 69 11 145l4 138-64 5c-65 5-176 47-199 74-18 22-32 17-25-8zm-6822 9907l-110-117 33-76c74-173 638-1458 646-1474 8-15 29 3 129 109 66 70 120 132 120 139 0 6-33 85-74 175l-75 163 132 140c73 77 173 183 223 235l91 95 174-67 174-68 122 128c67 71 122 133 122 138 0 7-1295 491-1585 592-6 2-61-48-122-112zm570-400l227-87-132-139c-72-77-134-139-137-139-4 0-193 409-209 453-2 5 3 8 10 5 8-3 116-45 241-93zm10793-90c-324-272-590-499-590-505 0-13 746-909 757-909 9-1 238 190 238 199 0 3-118 147-262 319-145 172-264 317-266 321s49 52 113 105c114 96 117 98 135 79 10-10 93-109 185-219 93-110 175-201 184-203 14-2 298 92 309 103 2 2-98 124-222 271-123 148-222 272-220 276 3 5 53 49 112 98 93 78 108 87 122 75 8-8 128-149 265-314 138-165 253-300 257-300 12-1 233 189 233 200 0 15-737 898-750 898-5 0-275-222-600-494zm-12400-847c-44-83-81-159-83-168s82-163 187-341c104-178 189-325 188-326s-171-14-377-28c-236-17-379-31-386-39-6-6-48-81-92-167l-82-156 682-359c375-197 687-360 694-362 11-3 164 273 164 295 0 6-196 113-436 239l-436 229 368 37c203 20 377 37 387 37 9 1 17 5 17 9 0 5-78 150-173 323-96 173-179 325-186 338-11 19 6 13 111-42 526-279 754-395 760-389 24 24 158 296 150 304-14 14-1355 718-1367 718-6 0-46-68-90-152zm13450-503c-374-190-684-346-689-348-6-2 133-298 149-315 2-2 102 47 224 107l221 111 55-110c30-60 55-114 55-120s-65-126-145-266l-144-256 89-179c50-98 93-179 98-179 4 0 79 130 167 289l159 289 44-34c98-75 219-111 334-100 186 17 368 137 445 293 32 65 37 84 41 171 8 162-9 210-218 630-99 199-185 362-192 362-7-1-319-156-693-345zm668-301c89-180 92-189 92-254 0-60-4-74-30-111-59-84-176-120-259-79-68 32-108 87-202 272l-84 168 187 94c104 52 191 95 196 95 4 1 49-83 100-185zM2757 10430c-66-12-133-46-178-91-91-91-86-261 9-341l30-25-46-34c-65-49-87-96-87-189 1-88 22-138 81-189 90-80 255-111 402-76 75 18 109 35 157 77 57 50 79 101 79 188 1 64-3 82-26 121-15 25-45 58-67 73l-40 28 30 25c48 41 73 98 73 173 0 115-59 197-173 241-58 21-177 31-244 19zm147-184c103-43 78-187-34-196-62-5-83 1-116 34-93 93 22 216 150 162zm20-390c78-33 98-106 43-161-60-60-184-60-244 0-53 53-40 120 31 155 48 23 122 26 170 6zm14025 571c-65-19-132-60-173-108-94-111-95-306-1-417 78-93 275-128 402-72l45 20-7-28c-12-48-49-106-84-129-55-37-141-32-226 12-37 19-71 33-75 30-19-12-102-145-97-157 9-23 110-77 177-94 96-24 217-16 297 20 72 33 138 98 177 175 73 142 83 391 24 549-28 75-113 161-183 186-65 23-215 30-276 13zm212-200c99-66 85-190-26-232-67-26-129-14-177 35-32 32-38 44-38 81 0 56 16 87 59 116 47 32 135 32 182 0zm-15188 165c-67-21-124-40-128-43-5-5 31-168 39-176 1-1 35 7 76 17 41 11 76 20 78 20 1 0 2-164 2-365v-365h220v950l-82-1c-65-1-110-9-205-37zm15896-245c-134-155-249-289-256-297-9-12-8-32 4-88l16-72h457v-210h200v210h130v170h-130v570h-178l-243-283zm221-157v-130h-230l111 130c61 72 113 130 115 130s4-58 4-130zM8025 3343c-431-92-699-505-620-958 55-313 268-547 580-637 111-32 350-32 468 0 141 38 270 115 372 221l39 41-114 115-115 115-68-55c-220-177-486-177-659-2-233 237-170 661 119 804 67 33 85 38 169 41 74 4 107 0 161-16 73-23 164-73 219-122 19-16 39-30 44-30s59 57 121 128l111 127-52 47c-99 92-227 154-378 184-95 18-306 17-397-3zm1165-798v-795h350v1590h-350v-795zm670 630v-165h480V1750h360v1260h480v330H9860v-165zm1460 158c0-5 137-224 305-488l305-480v-615h350v621l301 471c166 259 303 477 306 485 4 10-33 13-198 13l-204-1-185-309c-102-170-188-309-191-310-4 0-90 139-190 310l-184 309-207 1c-115 0-208-3-208-7z" transform="matrix(.1 0 0 -.1 0 2000)"></path></g></svg>
