<svg class="Bee-Glyph" width="40.175" height="31.148" xmlns="http://www.w3.org/2000/svg"><path data-name="Bee Glyph" d="M899.336 27.771a13.013 13.013 0 01-.5-3.448 14.153 14.153 0 011.55-6.082 4.782 4.782 0 00-1.511 1.55 6.908 6.908 0 00-.93 3.332 8.737 8.737 0 01-1.743 4.959 10.638 10.638 0 01-5.23 2.712.352.352 0 01-.349-.388.412.412 0 01.349-.387 9.573 9.573 0 004.649-2.479 7.663 7.663 0 001.55-4.455 7.523 7.523 0 011.007-3.719 6.559 6.559 0 012.75-2.324v-.349c-1.433.426-4.106 1.433-5.23 3.061a7.487 7.487 0 01-2.983 2.867 6.354 6.354 0 01-2.518.465 5.628 5.628 0 01-1.821-.233.446.446 0 01-.31-.387.4.4 0 01.387-.426 11.813 11.813 0 001.743.271 5.3 5.3 0 002.208-.426 5.983 5.983 0 002.015-1.743c-.969 0-2.17 0-2.634-.039-3.1-.194-7.593-3.177-7.593-6.121 0-2.208 1.9-3.061 4.417-3.061a17.022 17.022 0 012.286.194c5.307.736 8.484 1.356 9.763 1.666v-.426a5.2 5.2 0 01-2.441-2.4 2.459 2.459 0 00-2.17-1.434 4.327 4.327 0 01-2.247-1.748 8.736 8.736 0 01-.891-1.472.374.374 0 01.349-.542.37.37 0 01.348.194c.349.7 1.511 2.6 2.6 2.789a3.146 3.146 0 012.673 1.782 5.056 5.056 0 001.9 2.014 1.593 1.593 0 01.388-.5l1.2-1.24a.692.692 0 01-.194-.271 1.283 1.283 0 01.039-2.557h.039a2.064 2.064 0 01.5-.5 28.307 28.307 0 00-4.223-4.145.4.4 0 01-.155-.31.422.422 0 01.387-.426.417.417 0 01.271.116 28.053 28.053 0 014.533 4.494h1.433a28.184 28.184 0 014.528-4.499.418.418 0 01.271-.116.424.424 0 01.387.426.477.477 0 01-.155.31 28.678 28.678 0 00-4.261 4.145 1.689 1.689 0 01.542.5h.039a1.283 1.283 0 01.039 2.557 1.691 1.691 0 01-.233.271l1.24 1.24a1.471 1.471 0 01.349.5 5.12 5.12 0 001.937-2.014 3.137 3.137 0 012.635-1.782c1.162-.233 2.247-2.014 2.634-2.789a.338.338 0 01.348-.194.412.412 0 01.387.349.349.349 0 01-.039.194c-.155.31-1.511 2.906-3.138 3.215a2.413 2.413 0 00-2.169 1.434 5.211 5.211 0 01-2.441 2.4v.426a90.044 90.044 0 0112.049-1.859c2.479 0 4.417.814 4.417 3.061 0 3.061-4.572 5.927-7.593 6.121-.581.039-1.782.039-2.635.039a6.069 6.069 0 002.015 1.743 4.931 4.931 0 002.208.426 12.807 12.807 0 001.744-.271.4.4 0 01.387.426c0 .194-.155.349-.426.426a5.776 5.776 0 01-1.7.194 6.353 6.353 0 01-2.518-.465 7.738 7.738 0 01-2.983-2.867c-1.123-1.627-3.8-2.635-5.23-3.061v.349a6.559 6.559 0 012.75 2.324 7.821 7.821 0 011.007 3.719 7.941 7.941 0 001.55 4.455 9.965 9.965 0 004.649 2.479.39.39 0 01.349.426c0 .233-.194.349-.426.349a10.131 10.131 0 01-5.153-2.712 8.371 8.371 0 01-1.743-4.959 6.909 6.909 0 00-.93-3.332 3.982 3.982 0 00-1.085-1.2 13.134 13.134 0 011.395 5.734c0 4.029-2.17 8.407-5.579 8.407-2.4 0-4.3-2.208-5.075-4.959m5.075-1.433a31.319 31.319 0 004.649-.349 9.893 9.893 0 00.116-1.511 6.578 6.578 0 00-.039-.852 31.908 31.908 0 01-4.726.349 32.827 32.827 0 01-4.765-.349v.581a13.764 13.764 0 00.116 1.782 31.326 31.326 0 004.649.349m0-5.23a30.473 30.473 0 004.222-.31 12.71 12.71 0 00-.93-2.247 31.253 31.253 0 01-3.293.155 31.251 31.251 0 01-3.293-.155 12.715 12.715 0 00-.93 2.247 30.926 30.926 0 004.223.31m3.758 7.864a31.066 31.066 0 01-3.758.232 31.067 31.067 0 01-3.758-.232c.814 1.627 2.247 2.983 3.758 2.983 1.472 0 2.944-1.317 3.758-2.983M905.108 15.8a.853.853 0 00.581-.233l1.162-1.162a.789.789 0 00.232-.581V12.2a.879.879 0 00-.232-.62l-1.162-1.163a.854.854 0 00-.581-.232h-1.666a.854.854 0 00-.581.232l-1.161 1.16a.879.879 0 00-.232.62v1.627a.789.789 0 00.232.581l1.162 1.162a.853.853 0 00.581.233zm-3.06-1.627a.529.529 0 01-.155-.426v-1.473a.581.581 0 01.155-.426l.581-.581a.179.179 0 01.31.116V14.6a.179.179 0 01-.31.116zm1.085-4.765h2.286l.155-.116a1.656 1.656 0 01-.232-1.046 1.91 1.91 0 01.194-.968 1.113 1.113 0 00-.7-.271h-1.162a1.01 1.01 0 00-.658.271 1.993 1.993 0 01.155.968 1.707 1.707 0 01-.194 1.046zm.814 5.966a.177.177 0 01-.194-.155V10.8a.183.183 0 01.194-.194h.659a.183.183 0 01.194.194v4.416a.177.177 0 01-.194.155zm1.976-.658a.179.179 0 01-.31-.116v-3.217a.179.179 0 01.31-.116l.542.581a.621.621 0 01.194.426v1.472a.622.622 0 01-.194.426z" transform="translate(-884.188 -1.582)" fill="#3bd6ff"></path></svg>
