<svg class="Crown-Glyph" width="34.247" height="28.475" xmlns="http://www.w3.org/2000/svg"><path data-name="Crown Glyph" d="M1198.286 35.018l-2.208-19.68h.193c.62.233 2.17.93 2.6 2.015a4.884 4.884 0 01.349 2.828s3.216-.194 3.952 2.247c.581 2.092-1.666 3.409-2.092 3.68l-.078-.039a4.081 4.081 0 00.078-2.014c-.31-.891-1.627-.7-1.627-.7l.426 3.719c2.634-.271 6.7-.5 9.8-.62l-.078-5.811a1.863 1.863 0 00-1.862 1.357 5.546 5.546 0 00.387 2.867l-.078.039c-.7-.31-4.532-2.015-4.029-5.346.581-3.913 5.5-4.223 5.5-4.223a7.907 7.907 0 01.039-4.455c.5-1.976 2.828-3.8 3.487-4.261l.155-.078.155.078c.62.465 2.944 2.286 3.448 4.261a7.851 7.851 0 01.039 4.455s4.959.31 5.54 4.223c.465 3.332-3.37 5.036-4.068 5.346l-.078-.039a5.542 5.542 0 00.387-2.867c-.271-1.395-1.859-1.356-1.859-1.356l-.078 5.811c3.1.116 7.167.349 9.84.62l.426-3.719s-1.356-.194-1.627.7a3.748 3.748 0 00.039 2.014l-.039.039c-.465-.271-2.712-1.588-2.092-3.68.7-2.441 3.913-2.247 3.913-2.247a4.745 4.745 0 01.387-2.828c.388-1.085 1.937-1.782 2.557-2.015h.232l-2.247 19.68z" transform="translate(-1196.078 -6.543)" fill="#3bd6ff"></path></svg>
