<svg class="icon-language" width="100" height="100" xmlns="http://www.w3.org/2000/svg"><g fill="#3bd6ff"><path d="M50 7.5c23.4 0 42.5 19.1 42.5 42.5S73.4 92.5 50 92.5 7.5 73.4 7.5 50 26.6 7.5 50 7.5M50 1C22.9 1 1 22.9 1 50s21.9 49 49 49 49-21.9 49-49S77.1 1 50 1z"></path><path d="M50 7.5c8.5 0 18 18.2 18 42.5s-9.5 42.5-18 42.5S32 74.3 32 50 41.5 7.5 50 7.5M50 1C36.5 1 25.5 22.9 25.5 50s11 49 24.5 49 24.5-21.9 24.5-49S63.5 1 50 1z"></path><path d="M6 33.7h87.5v8.2H6zm0 24.5h87.5v8.2H6z"></path></g></svg>
